erDiagram
    balance_transactions ||--o{ balance_transaction_fee_details : "balance_transaction_id"
    transfers ||--o{ balance_transactions : "automatic_transfer_id"
    customers ||--o{ charges : "customer_id"
    invoices ||--o{ charges : "invoice_id"
    balance_transactions ||--o{ charges : "balance_transaction_id"
    transfers ||--o{ charges : "transfer_id"
    connected_accounts ||--o{ charges : "destination_id"
    disputes ||--o{ charges : "dispute_id"
    customers ||--o{ checkout_sessions : "customer_id"
    payment_intents ||--o{ checkout_sessions : "payment_intent_id"
    invoices ||--o{ checkout_sessions : "invoice_id"
    subscriptions ||--o{ checkout_sessions : "subscription_id"
    charges ||--o{ disputes : "charge_id"
    invoices ||--o{ invoice_line_items : "invoice_id"
    prices ||--o{ invoice_line_items : "price_id"
    subscription_items ||--o{ invoice_line_items : "subscription_item_id"
    customers ||--o{ invoices : "customer_id"
    subscriptions ||--o{ invoices : "subscription_id"
    charges ||--o{ invoices : "charge_id"
    balance_transactions ||--o{ itemized_fees : "balance_transaction_id"
    connected_accounts ||--o{ itemized_fees : "connected_account_id"
    customers ||--o{ payment_intents : "customer_id"
    invoices ||--o{ payment_intents : "invoice_id"
    charges ||--o{ payment_method_details : "charge_id"
    products ||--o{ prices : "product_id"
    charges ||--o{ refunds : "charge_id"
    balance_transactions ||--o{ refunds : "balance_transaction_id"
    subscription_items ||--o{ subscription_item_change_events : "subscription_item_id"
    customers ||--o{ subscription_item_change_events : "customer_id"
    prices ||--o{ subscription_item_change_events : "price_id"
    products ||--o{ subscription_item_change_events : "product_id"
    subscriptions ||--o{ subscription_item_change_events : "subscription_id"
    subscriptions ||--o{ subscription_items : "subscription_id"
    prices ||--o{ subscription_items : "price_id"
    products ||--o{ subscription_items : "price_product_id"
    customers ||--o{ subscriptions : "customer_id"
    prices ||--o{ subscriptions : "price_id"
    tax_transactions ||--o{ tax_transaction_line_items : "tax_transaction_id"
    products ||--o{ tax_transaction_line_items : "product_id"
    customers ||--o{ tax_transactions : "customer_id"
    balance_transactions ||--o{ transfers : "balance_transaction_id"
